# xmcd
#
# Track frame offsets: 
#        150
#        13569
#        25091
#        35983
#        51928
#        65433
#        84990
#        97986
#        112501
#        123274
#        135308
#        144910
#        157567
#        168145
#        182520
#        197648
#        212250
#        229430
#        239520
#        255399
#        270100
#        289101
#        303625
#        316968
#
# Disc length: 4385 seconds
#
# Revision: 0
# Processed by: cddbd v1.5.2PL0 Copyright (c) Steve Scherf et al.
# Submitted via: ExactAudioCopy v1.0b3
#
DISCID=2c111f18
DTITLE=Various Artist - 101 Country Hits CD3-4
DYEAR=2009
DGENRE=Country
TTITLE0=Kenny Dale - Shame Shame On Me
TTITLE1=Wanda Jackson - In The Middle Of A Heartache
TTITLE2=Glen Campbell - Try A Little Kindness
TTITLE3=Toni Williams - Rose (Can I Share A Bed With You?)
TTITLE4=Patsy Riggir - Lay Down Beside Me
TTITLE5=Kenny Rogers - Coward Of The County
TTITLE6=Crystal Gayle - Talking In Your Sleep
TTITLE7=Asleep At The Wheel - The Letter That Johnny Walker Read
TTITLE8=The Fendermen - Mule Skinner Blues
TTITLE9=Johnny Cash - I Walk The Line
TTITLE10=George Jones - The Race Is On
TTITLE11=Johnny Tillotson - It Keeps Right On A Hurtin'
TTITLE12=Leroy Van Dyke - Walk On By
TTITLE13=Glen Campbell and Bobby Gentry - My Elusive Dreams
TTITLE14=Gene Watson - Love In The Hot Afternoon
TTITLE15=The Bellamy Brothers - Dancin' Cowboys
TTITLE16=Don Williams - Old Coyote Town
TTITLE17=Sonny James - You're The Only World I Know
TTITLE18=The Band - The Night They Drove Old Dixie Down
TTITLE19=T. Graham Brown - Darlene
TTITLE20=Dan Seals - Addicted
TTITLE21=Juice Newton - Love's Been A Little Bit Hard On Me
TTITLE22=Mel Mcdaniel - Baby's Got Her Blue Jeans On
TTITLE23=Jody Miller - Crazy
EXTD=
EXTT0=
EXTT1=
EXTT2=
EXTT3=
EXTT4=
EXTT5=
EXTT6=
EXTT7=
EXTT8=
EXTT9=
EXTT10=
EXTT11=
EXTT12=
EXTT13=
EXTT14=
EXTT15=
EXTT16=
EXTT17=
EXTT18=
EXTT19=
EXTT20=
EXTT21=
EXTT22=
EXTT23=
PLAYORDER=
